<?xml version="1.0" encoding="iso-8859-1"?>
<!-- Generator: Adobe Illustrator 19.0.0, SVG Export Plug-In . SVG Version: 6.00 Build 0)  -->
<svg version="1.1" id="Capa_1" xmlns="http://www.w3.org/2000/svg" xmlns:xlink="http://www.w3.org/1999/xlink" x="0px" y="0px"
	 viewBox="0 0 512.001 512.001" style="enable-background:new 0 0 512.001 512.001;" xml:space="preserve">
<g>
	<g>
		<path d="M494.678,256.001C505.828,242.667,512,225.859,512,207.965c0-41.419-33.697-75.116-75.116-75.116
			c-36.285,0-66.643,25.858-73.612,60.116H148.728c-6.969-34.258-37.327-60.116-73.612-60.116C33.697,132.85,0,166.546,0,207.965
			c0,17.894,6.172,34.702,17.323,48.036C6.172,269.335,0,286.143,0,304.036c0,41.419,33.697,75.116,75.116,75.116
			c36.285,0,66.643-25.858,73.612-60.116h214.545c6.969,34.258,37.327,60.116,73.612,60.116c41.419,0,75.116-33.697,75.116-75.116
			C512.001,286.142,505.829,269.335,494.678,256.001z M464,267.98c11.439,8.622,18,21.763,18,36.056
			c0,24.877-20.239,45.116-45.116,45.116c-24.877,0-45.116-20.239-45.116-45.116c0-8.284-6.716-15-15-15H135.232
			c-8.284,0-15,6.716-15,15c0,24.877-20.239,45.116-45.116,45.116C50.239,349.152,30,328.913,30,304.036
			c0-14.293,6.561-27.435,18-36.056c3.761-2.834,5.972-7.27,5.972-11.979c0-4.709-2.211-9.145-5.972-11.979
			c-11.439-8.622-18-21.764-18-36.057c0-24.877,20.239-45.116,45.116-45.116c24.877,0,45.116,20.239,45.116,45.116
			c0,8.284,6.716,15,15,15h241.536c8.284,0,15-6.716,15-15c0-24.877,20.239-45.116,45.116-45.116
			c24.877,0,45.116,20.239,45.116,45.116c0,14.293-6.561,27.435-18,36.057c-3.761,2.834-5.972,7.27-5.972,11.979
			C458.028,260.71,460.239,265.146,464,267.98z"/>
	</g>
</g>
<g>
</g>
<g>
</g>
<g>
</g>
<g>
</g>
<g>
</g>
<g>
</g>
<g>
</g>
<g>
</g>
<g>
</g>
<g>
</g>
<g>
</g>
<g>
</g>
<g>
</g>
<g>
</g>
<g>
</g>
</svg>
