<svg xmlns="http://www.w3.org/2000/svg" viewBox="0 0 512.001 512.001"><path d="M494.678 256.001C505.828 242.667 512 225.859 512 207.965c0-41.419-33.697-75.116-75.116-75.116-36.285 0-66.643 25.858-73.612 60.116H148.728c-6.969-34.258-37.327-60.116-73.612-60.116C33.697 132.85 0 166.546 0 207.965c0 17.894 6.172 34.702 17.323 48.036C6.172 269.335 0 286.143 0 304.036c0 41.419 33.697 75.116 75.116 75.116 36.285 0 66.643-25.858 73.612-60.116h214.545c6.969 34.258 37.327 60.116 73.612 60.116 41.419 0 75.116-33.697 75.116-75.116 0-17.894-6.172-34.701-17.323-48.035zM464 267.98c11.439 8.622 18 21.763 18 36.056 0 24.877-20.239 45.116-45.116 45.116s-45.116-20.239-45.116-45.116c0-8.284-6.716-15-15-15H135.232c-8.284 0-15 6.716-15 15 0 24.877-20.239 45.116-45.116 45.116S30 328.913 30 304.036c0-14.293 6.561-27.435 18-36.056a14.999 14.999 0 000-23.958c-11.439-8.622-18-21.764-18-36.057 0-24.877 20.239-45.116 45.116-45.116s45.116 20.239 45.116 45.116c0 8.284 6.716 15 15 15h241.536c8.284 0 15-6.716 15-15 0-24.877 20.239-45.116 45.116-45.116S482 183.088 482 207.965c0 14.293-6.561 27.435-18 36.057a14.999 14.999 0 000 23.958z"/></svg>