<svg xmlns="http://www.w3.org/2000/svg" width="512" height="512" viewBox="0 0 128 128"><path d="M123.681 21.191a16.994 16.994 0 00-11.308-5.564 16.992 16.992 0 00-5.564-11.308A17.123 17.123 0 0084 4.39a16.918 16.918 0 00-4.879 17.31 12.1 12.1 0 01-2.853 11.96L33.656 76.268A12.094 12.094 0 0121.7 79.121 16.916 16.916 0 004.39 84a17.121 17.121 0 00-.071 22.808 16.985 16.985 0 0011.308 5.564 16.989 16.989 0 1033.252-6.072 12.1 12.1 0 012.853-11.96l42.612-42.608a12.1 12.1 0 0111.961-2.853A16.914 16.914 0 00123.61 44a17.123 17.123 0 00.071-22.809zm-2.657 20.45a13.441 13.441 0 01-13.747 3.876 15.6 15.6 0 00-15.408 3.741L49.258 91.87a15.591 15.591 0 00-3.741 15.408 13.437 13.437 0 01-3.877 13.747 13.481 13.481 0 01-22.56-10.312 1.752 1.752 0 00-1.75-1.793h-.043a13.443 13.443 0 01-10.368-4.455 13.591 13.591 0 01.056-18.105 13.436 13.436 0 0113.747-3.877 15.588 15.588 0 0015.408-3.741L78.742 36.13a15.59 15.59 0 003.74-15.408 13.441 13.441 0 013.877-13.747 13.483 13.483 0 0122.562 10.312 1.746 1.746 0 00.512 1.28 1.764 1.764 0 001.28.513 13.481 13.481 0 0110.311 22.561z"/><path d="M113.63 27.9a1.75 1.75 0 00-.128 2.472 3.384 3.384 0 01-.013 4.393 3.33 3.33 0 01-3.373.955 1.75 1.75 0 00-.972 3.362 6.9 6.9 0 001.907.265 6.7 6.7 0 005.023-2.222 6.917 6.917 0 00.028-9.1 1.751 1.751 0 00-2.472-.125z"/></svg>